<svg xmlns="http://www.w3.org/2000/svg" width="1120" height="410" viewBox="0 0 1120 410" role="img" aria-labelledby="chart-title chart-desc">
  <title id="chart-title">GitHub contribution activity</title>
  <desc id="chart-desc">261 contributions across 37 active days in the last 90 days.</desc>
  <defs>
    <linearGradient id="chart-bg" x1="0" y1="0" x2="0" y2="1">
      <stop offset="0" stop-color="#111821" stop-opacity="0.72"/>
      <stop offset="1" stop-color="#0d1117" stop-opacity="1"/>
    </linearGradient>
    <linearGradient id="daily-area" x1="0" y1="0" x2="0" y2="1">
      <stop offset="0" stop-color="#39d353" stop-opacity="0.23"/>
      <stop offset="0.58" stop-color="#39d353" stop-opacity="0.07"/>
      <stop offset="1" stop-color="#39d353" stop-opacity="0"/>
    </linearGradient>
    <filter id="point-glow" x="-300%" y="-300%" width="700%" height="700%">
      <feGaussianBlur stdDeviation="3.5" result="blur"/>
      <feMerge><feMergeNode in="blur"/><feMergeNode in="SourceGraphic"/></feMerge>
    </filter>
  </defs>
  <rect x="0.5" y="0.5" width="1119" height="409" rx="18" fill="url(#chart-bg)" stroke="none"/>
  <g font-family="-apple-system,BlinkMacSystemFont,'Segoe UI',sans-serif">
    <text x="70" y="34" fill="#f0f6fc" font-size="20" font-weight="700" letter-spacing="-0.25">GitHub contribution activity</text>
    <text x="70" y="58" fill="#8b949e" font-size="12">@farhanafaiz03 · Jul 13, 2026 → Oct 10, 2026</text>
    <text x="70" y="78" fill="#8b949e" font-size="12" opacity="0.94">90 days · 261 contributions · 37 active days · peak 33</text>
    <g transform="translate(896,30)" font-size="12" fill="#8b949e">
      <line x1="0" y1="0" x2="25" y2="0" stroke="#39d353" stroke-width="2.6" stroke-linecap="round"/>
      <text x="33" y="4">Daily</text>
      <line x1="92" y1="0" x2="117" y2="0" stroke="#58a6ff" stroke-width="1.7" stroke-dasharray="5 6" stroke-linecap="round" opacity="0.72"/>
      <text x="125" y="4">7d trend</text>
    </g>
    <line x1="70" y1="116.00" x2="1078" y2="116.00" stroke="#21262d" stroke-width="1" opacity="0.52"/>
    <text x="56" y="120.00" fill="#8b949e" font-size="12" text-anchor="end" opacity="0.82">38</text>
    <line x1="70" y1="193.33" x2="1078" y2="193.33" stroke="#21262d" stroke-width="1" opacity="0.52"/>
    <text x="56" y="197.33" fill="#8b949e" font-size="12" text-anchor="end" opacity="0.82">25</text>
    <line x1="70" y1="270.67" x2="1078" y2="270.67" stroke="#21262d" stroke-width="1" opacity="0.52"/>
    <text x="56" y="274.67" fill="#8b949e" font-size="12" text-anchor="end" opacity="0.82">13</text>
    <line x1="70" y1="348.00" x2="1078" y2="348.00" stroke="#21262d" stroke-width="1" opacity="0.9"/>
    <text x="56" y="352.00" fill="#8b949e" font-size="12" text-anchor="end" opacity="0.82">0</text>
    <path d="M 70.00 348.00 C 72.04 348.00, 77.25 348.00, 81.33 348.00 C 85.40 348.00, 88.57 348.00, 92.65 348.00 C 96.73 348.00, 99.90 348.00, 103.98 348.00 C 108.05 348.00, 111.23 348.00, 115.30 348.00 C 119.38 344.67, 122.55 329.50, 126.63 329.50 C 130.71 329.50, 133.88 344.67, 137.96 348.00 C 142.03 348.00, 145.20 348.00, 149.28 348.00 C 153.36 348.00, 156.53 348.00, 160.61 348.00 C 164.68 348.00, 167.86 348.00, 171.93 348.00 C 176.01 342.45, 179.18 319.39, 183.26 317.17 C 187.34 317.17, 190.51 335.67, 194.58 335.67 C 198.66 321.24, 201.83 239.22, 205.91 237.00 C 209.99 237.00, 213.16 303.35, 217.24 323.33 C 221.31 343.31, 224.48 343.56, 228.56 348.00 C 232.64 348.00, 235.81 348.00, 239.89 348.00 C 243.96 348.00, 247.14 348.00, 251.21 348.00 C 255.29 348.00, 258.46 348.00, 262.54 348.00 C 266.62 346.89, 269.79 345.16, 273.87 341.83 C 277.94 338.50, 281.11 329.50, 285.19 329.50 C 289.27 330.61, 292.44 348.00, 296.52 348.00 C 300.59 346.89, 303.77 324.44, 307.84 323.33 C 311.92 323.33, 315.09 341.83, 319.17 341.83 C 323.25 339.61, 326.42 320.99, 330.49 311.00 C 334.57 301.01, 337.74 289.66, 341.82 286.33 C 345.90 286.33, 349.07 286.33, 353.15 292.50 C 357.22 299.16, 360.39 320.00, 364.47 323.33 C 368.55 323.33, 371.72 313.22, 375.80 311.00 C 379.88 311.00, 383.05 311.00, 387.12 311.00 C 391.20 301.01, 394.37 265.49, 398.45 255.50 C 402.53 255.50, 405.70 255.50, 409.78 255.50 C 413.85 263.27, 417.02 289.78, 421.10 298.66 C 425.18 304.83, 428.35 301.50, 432.43 304.83 C 436.50 308.16, 439.68 309.40, 443.75 317.17 C 447.83 324.94, 451.00 342.45, 455.08 348.00 C 459.16 348.00, 462.33 348.00, 466.40 348.00 C 470.48 330.24, 473.65 249.33, 477.73 249.33 C 481.81 249.33, 484.98 340.23, 489.06 348.00 C 493.13 348.00, 496.30 292.50, 500.38 292.50 C 504.46 292.50, 507.63 339.12, 511.71 348.00 C 515.79 348.00, 518.96 346.27, 523.03 341.83 C 527.11 337.39, 530.28 323.33, 534.36 323.33 C 538.44 324.44, 541.61 348.00, 545.69 348.00 C 549.76 341.34, 552.93 287.44, 557.01 286.33 C 561.09 286.33, 564.26 336.28, 568.34 341.83 C 572.41 341.83, 575.59 328.27, 579.66 317.17 C 583.74 306.06, 586.91 283.49, 590.99 280.16 C 595.07 280.16, 598.24 286.45, 602.31 298.66 C 606.39 310.88, 609.56 339.12, 613.64 348.00 C 617.72 348.00, 620.89 348.00, 624.97 348.00 C 629.04 348.00, 632.21 348.00, 636.29 348.00 C 640.37 336.90, 643.54 287.44, 647.62 286.33 C 651.70 286.33, 654.87 330.73, 658.94 341.83 C 663.02 348.00, 666.19 346.89, 670.27 348.00 C 674.35 348.00, 677.52 348.00, 681.60 348.00 C 685.67 348.00, 688.84 348.00, 692.92 348.00 C 697.00 348.00, 700.17 348.00, 704.25 348.00 C 708.32 345.78, 711.50 335.67, 715.57 335.67 C 719.65 335.67, 722.82 345.78, 726.90 348.00 C 730.98 348.00, 734.15 348.00, 738.22 348.00 C 742.30 348.00, 745.47 348.00, 749.55 348.00 C 753.63 341.34, 756.80 311.00, 760.88 311.00 C 764.95 311.00, 768.12 341.34, 772.20 348.00 C 776.28 348.00, 779.45 348.00, 783.53 348.00 C 787.61 348.00, 790.78 348.00, 794.85 348.00 C 798.93 348.00, 802.10 348.00, 806.18 348.00 C 810.26 311.37, 813.43 147.82, 817.51 144.49 C 821.58 144.49, 824.75 292.87, 828.83 329.50 C 832.91 348.00, 836.08 346.89, 840.16 348.00 C 844.23 348.00, 847.41 335.67, 851.48 335.67 C 855.56 335.67, 858.73 345.78, 862.81 348.00 C 866.89 348.00, 870.06 348.00, 874.13 348.00 C 878.21 348.00, 881.38 348.00, 885.46 348.00 C 889.54 348.00, 892.71 348.00, 896.79 348.00 C 900.86 348.00, 904.04 348.00, 908.11 348.00 C 912.19 348.00, 915.36 348.00, 919.44 348.00 C 923.52 348.00, 926.69 348.00, 930.76 348.00 C 934.84 340.23, 938.01 304.83, 942.09 304.83 C 946.17 304.83, 949.34 340.23, 953.42 348.00 C 957.49 348.00, 960.66 348.00, 964.74 348.00 C 968.82 348.00, 971.99 348.00, 976.07 348.00 C 980.14 348.00, 983.32 348.00, 987.39 348.00 C 991.47 348.00, 994.64 348.00, 998.72 348.00 C 1002.80 348.00, 1005.97 348.00, 1010.04 348.00 C 1014.12 348.00, 1017.29 348.00, 1021.37 348.00 C 1025.45 348.00, 1028.62 348.00, 1032.70 348.00 C 1036.77 348.00, 1039.95 348.00, 1044.02 348.00 C 1048.10 348.00, 1051.27 348.00, 1055.35 348.00 C 1059.43 348.00, 1062.60 348.00, 1066.67 348.00 C 1070.75 348.00, 1075.96 348.00, 1078.00 348.00 L 1078.00 348.00 L 70.00 348.00 Z" fill="url(#daily-area)"/>
    <path d="M 70.00 347.14 C 72.72 347.14, 75.89 347.14, 81.33 347.14 C 86.76 347.34, 87.22 347.79, 92.65 348.00 C 98.09 348.00, 98.54 348.00, 103.98 348.00 C 109.41 348.00, 109.87 348.00, 115.30 348.00 C 120.74 347.36, 121.19 345.98, 126.63 345.35 C 132.07 345.35, 132.52 345.35, 137.96 345.35 C 143.39 345.35, 143.84 345.35, 149.28 345.35 C 154.72 345.35, 155.17 345.35, 160.61 345.35 C 166.04 345.35, 166.50 345.35, 171.93 345.35 C 177.37 344.30, 177.82 342.45, 183.26 340.97 C 188.69 339.49, 189.15 340.97, 194.58 339.18 C 200.02 335.58, 200.47 330.00, 205.91 325.98 C 211.35 322.47, 211.80 323.31, 217.24 322.47 C 222.67 322.47, 223.13 322.47, 228.56 322.47 C 234.00 322.47, 234.45 322.47, 239.89 322.47 C 245.32 322.47, 245.78 322.47, 251.21 322.47 C 256.65 323.52, 257.10 325.59, 262.54 326.85 C 267.98 327.71, 268.43 326.85, 273.87 327.71 C 279.30 331.10, 279.75 336.94, 285.19 340.97 C 290.63 344.48, 291.08 344.48, 296.52 344.48 C 301.95 344.48, 302.41 342.04, 307.84 340.97 C 313.28 340.04, 313.73 340.97, 319.17 340.04 C 324.60 338.56, 325.06 338.18, 330.49 334.80 C 335.93 331.43, 336.38 329.79, 341.82 325.98 C 347.26 322.18, 347.71 320.86, 353.15 318.95 C 358.58 318.03, 359.04 318.95, 364.47 318.03 C 369.91 316.55, 370.36 314.47, 375.80 312.79 C 381.23 311.10, 381.69 312.79, 387.12 311.00 C 392.56 307.61, 393.01 303.53, 398.45 298.66 C 403.89 293.80, 404.34 292.19, 409.78 290.71 C 415.21 290.71, 415.66 291.64, 421.10 292.50 C 426.54 293.36, 426.99 294.08, 432.43 294.29 C 437.86 294.29, 438.32 293.36, 443.75 293.36 C 449.19 294.41, 449.64 296.12, 455.08 298.66 C 460.52 301.21, 460.97 302.92, 466.40 303.97 C 471.84 303.97, 472.29 303.04, 477.73 303.04 C 483.17 306.00, 483.62 313.34, 489.06 316.30 C 494.49 316.30, 494.95 315.38, 500.38 315.38 C 505.82 316.63, 506.27 319.21, 511.71 321.54 C 517.14 323.88, 517.60 325.12, 523.03 325.12 C 528.47 325.12, 528.92 322.40, 534.36 321.54 C 539.80 321.54, 540.25 321.54, 545.69 321.54 C 551.12 322.82, 551.57 325.78, 557.01 326.85 C 562.45 326.85, 562.90 325.98, 568.34 325.98 C 573.77 326.62, 574.23 329.50, 579.66 329.50 C 585.10 328.02, 585.55 323.62, 590.99 319.82 C 596.43 316.01, 596.88 314.29, 602.31 313.65 C 607.75 313.65, 608.20 316.32, 613.64 317.17 C 619.08 317.17, 619.53 317.17, 624.97 317.17 C 630.40 319.28, 630.86 325.78, 636.29 325.98 C 641.73 325.98, 642.18 319.09, 647.62 318.03 C 653.05 318.03, 653.51 318.36, 658.94 321.54 C 664.38 324.73, 664.83 327.26, 670.27 331.29 C 675.71 335.31, 676.16 336.63, 681.60 338.32 C 687.03 338.32, 687.48 338.32, 692.92 338.32 C 698.36 338.32, 698.81 338.32, 704.25 338.32 C 709.68 337.89, 710.14 336.53, 715.57 336.53 C 721.01 338.22, 721.46 343.02, 726.90 345.35 C 732.34 346.21, 732.79 346.00, 738.22 346.21 C 743.66 346.21, 744.11 346.21, 749.55 346.21 C 754.99 344.95, 755.44 342.23, 760.88 340.97 C 766.31 340.97, 766.77 340.97, 772.20 340.97 C 777.64 340.97, 778.09 340.97, 783.53 340.97 C 788.96 341.38, 789.42 342.28, 794.85 342.70 C 800.29 342.70, 800.74 342.70, 806.18 342.70 C 811.62 335.73, 812.07 321.26, 817.51 313.65 C 822.94 311.00, 823.40 311.00, 828.83 311.00 C 834.27 311.63, 834.72 315.46, 840.16 316.30 C 845.59 316.30, 846.05 314.94, 851.48 314.51 C 856.92 314.51, 857.37 314.51, 862.81 314.51 C 868.25 314.51, 868.70 314.51, 874.13 314.51 C 879.57 314.51, 880.02 314.51, 885.46 314.51 C 890.90 321.50, 891.35 336.01, 896.79 343.62 C 902.22 346.21, 902.68 345.59, 908.11 346.21 C 913.55 346.21, 914.00 346.21, 919.44 346.21 C 924.87 346.64, 925.33 348.00, 930.76 348.00 C 936.20 346.95, 936.65 343.31, 942.09 341.83 C 947.53 341.83, 947.98 341.83, 953.42 341.83 C 958.85 341.83, 959.31 341.83, 964.74 341.83 C 970.18 341.83, 970.63 341.83, 976.07 341.83 C 981.50 341.83, 981.96 341.83, 987.39 341.83 C 992.83 341.83, 993.28 341.83, 998.72 341.83 C 1004.16 341.83, 1004.61 341.83, 1010.04 341.83 C 1015.48 343.31, 1015.93 346.52, 1021.37 348.00 C 1026.81 348.00, 1027.26 348.00, 1032.70 348.00 C 1038.13 348.00, 1038.59 348.00, 1044.02 348.00 C 1049.46 348.00, 1049.91 348.00, 1055.35 348.00 C 1060.78 348.00, 1061.24 348.00, 1066.67 348.00 C 1072.11 348.00, 1075.28 348.00, 1078.00 348.00" fill="none" stroke="#58a6ff" stroke-width="1.75" stroke-dasharray="5 7" stroke-linejoin="round" stroke-linecap="round" opacity="0.66" vector-effect="non-scaling-stroke"/>
    <path d="M 70.00 348.00 C 72.04 348.00, 77.25 348.00, 81.33 348.00 C 85.40 348.00, 88.57 348.00, 92.65 348.00 C 96.73 348.00, 99.90 348.00, 103.98 348.00 C 108.05 348.00, 111.23 348.00, 115.30 348.00 C 119.38 344.67, 122.55 329.50, 126.63 329.50 C 130.71 329.50, 133.88 344.67, 137.96 348.00 C 142.03 348.00, 145.20 348.00, 149.28 348.00 C 153.36 348.00, 156.53 348.00, 160.61 348.00 C 164.68 348.00, 167.86 348.00, 171.93 348.00 C 176.01 342.45, 179.18 319.39, 183.26 317.17 C 187.34 317.17, 190.51 335.67, 194.58 335.67 C 198.66 321.24, 201.83 239.22, 205.91 237.00 C 209.99 237.00, 213.16 303.35, 217.24 323.33 C 221.31 343.31, 224.48 343.56, 228.56 348.00 C 232.64 348.00, 235.81 348.00, 239.89 348.00 C 243.96 348.00, 247.14 348.00, 251.21 348.00 C 255.29 348.00, 258.46 348.00, 262.54 348.00 C 266.62 346.89, 269.79 345.16, 273.87 341.83 C 277.94 338.50, 281.11 329.50, 285.19 329.50 C 289.27 330.61, 292.44 348.00, 296.52 348.00 C 300.59 346.89, 303.77 324.44, 307.84 323.33 C 311.92 323.33, 315.09 341.83, 319.17 341.83 C 323.25 339.61, 326.42 320.99, 330.49 311.00 C 334.57 301.01, 337.74 289.66, 341.82 286.33 C 345.90 286.33, 349.07 286.33, 353.15 292.50 C 357.22 299.16, 360.39 320.00, 364.47 323.33 C 368.55 323.33, 371.72 313.22, 375.80 311.00 C 379.88 311.00, 383.05 311.00, 387.12 311.00 C 391.20 301.01, 394.37 265.49, 398.45 255.50 C 402.53 255.50, 405.70 255.50, 409.78 255.50 C 413.85 263.27, 417.02 289.78, 421.10 298.66 C 425.18 304.83, 428.35 301.50, 432.43 304.83 C 436.50 308.16, 439.68 309.40, 443.75 317.17 C 447.83 324.94, 451.00 342.45, 455.08 348.00 C 459.16 348.00, 462.33 348.00, 466.40 348.00 C 470.48 330.24, 473.65 249.33, 477.73 249.33 C 481.81 249.33, 484.98 340.23, 489.06 348.00 C 493.13 348.00, 496.30 292.50, 500.38 292.50 C 504.46 292.50, 507.63 339.12, 511.71 348.00 C 515.79 348.00, 518.96 346.27, 523.03 341.83 C 527.11 337.39, 530.28 323.33, 534.36 323.33 C 538.44 324.44, 541.61 348.00, 545.69 348.00 C 549.76 341.34, 552.93 287.44, 557.01 286.33 C 561.09 286.33, 564.26 336.28, 568.34 341.83 C 572.41 341.83, 575.59 328.27, 579.66 317.17 C 583.74 306.06, 586.91 283.49, 590.99 280.16 C 595.07 280.16, 598.24 286.45, 602.31 298.66 C 606.39 310.88, 609.56 339.12, 613.64 348.00 C 617.72 348.00, 620.89 348.00, 624.97 348.00 C 629.04 348.00, 632.21 348.00, 636.29 348.00 C 640.37 336.90, 643.54 287.44, 647.62 286.33 C 651.70 286.33, 654.87 330.73, 658.94 341.83 C 663.02 348.00, 666.19 346.89, 670.27 348.00 C 674.35 348.00, 677.52 348.00, 681.60 348.00 C 685.67 348.00, 688.84 348.00, 692.92 348.00 C 697.00 348.00, 700.17 348.00, 704.25 348.00 C 708.32 345.78, 711.50 335.67, 715.57 335.67 C 719.65 335.67, 722.82 345.78, 726.90 348.00 C 730.98 348.00, 734.15 348.00, 738.22 348.00 C 742.30 348.00, 745.47 348.00, 749.55 348.00 C 753.63 341.34, 756.80 311.00, 760.88 311.00 C 764.95 311.00, 768.12 341.34, 772.20 348.00 C 776.28 348.00, 779.45 348.00, 783.53 348.00 C 787.61 348.00, 790.78 348.00, 794.85 348.00 C 798.93 348.00, 802.10 348.00, 806.18 348.00 C 810.26 311.37, 813.43 147.82, 817.51 144.49 C 821.58 144.49, 824.75 292.87, 828.83 329.50 C 832.91 348.00, 836.08 346.89, 840.16 348.00 C 844.23 348.00, 847.41 335.67, 851.48 335.67 C 855.56 335.67, 858.73 345.78, 862.81 348.00 C 866.89 348.00, 870.06 348.00, 874.13 348.00 C 878.21 348.00, 881.38 348.00, 885.46 348.00 C 889.54 348.00, 892.71 348.00, 896.79 348.00 C 900.86 348.00, 904.04 348.00, 908.11 348.00 C 912.19 348.00, 915.36 348.00, 919.44 348.00 C 923.52 348.00, 926.69 348.00, 930.76 348.00 C 934.84 340.23, 938.01 304.83, 942.09 304.83 C 946.17 304.83, 949.34 340.23, 953.42 348.00 C 957.49 348.00, 960.66 348.00, 964.74 348.00 C 968.82 348.00, 971.99 348.00, 976.07 348.00 C 980.14 348.00, 983.32 348.00, 987.39 348.00 C 991.47 348.00, 994.64 348.00, 998.72 348.00 C 1002.80 348.00, 1005.97 348.00, 1010.04 348.00 C 1014.12 348.00, 1017.29 348.00, 1021.37 348.00 C 1025.45 348.00, 1028.62 348.00, 1032.70 348.00 C 1036.77 348.00, 1039.95 348.00, 1044.02 348.00 C 1048.10 348.00, 1051.27 348.00, 1055.35 348.00 C 1059.43 348.00, 1062.60 348.00, 1066.67 348.00 C 1070.75 348.00, 1075.96 348.00, 1078.00 348.00" fill="none" stroke="#39d353" stroke-width="2.8" stroke-linejoin="round" stroke-linecap="round" vector-effect="non-scaling-stroke"/>
    <circle cx="1078.00" cy="348.00" r="3.2" fill="#39d353" filter="url(#point-glow)"/>
    <text x="70.00" y="389" fill="#8b949e" font-size="12" text-anchor="start" opacity="0.86">Jul 13</text>
    <text x="273.87" y="389" fill="#8b949e" font-size="12" text-anchor="middle" opacity="0.86">Jul 31</text>
    <text x="477.73" y="389" fill="#8b949e" font-size="12" text-anchor="middle" opacity="0.86">Aug 18</text>
    <text x="670.27" y="389" fill="#8b949e" font-size="12" text-anchor="middle" opacity="0.86">Sep 04</text>
    <text x="874.13" y="389" fill="#8b949e" font-size="12" text-anchor="middle" opacity="0.86">Sep 22</text>
    <text x="1078.00" y="389" fill="#8b949e" font-size="12" text-anchor="end" opacity="0.86">Oct 10</text>
  </g>
</svg>
