<svg xmlns="http://www.w3.org/2000/svg" width="1120" height="410" viewBox="0 0 1120 410" role="img" aria-labelledby="chart-title chart-desc">
  <title id="chart-title">GitHub contribution activity</title>
  <desc id="chart-desc">76 contributions across 9 active days in the last 30 days.</desc>
  <defs>
    <linearGradient id="chart-bg" x1="0" y1="0" x2="0" y2="1">
      <stop offset="0" stop-color="#111821" stop-opacity="0.72"/>
      <stop offset="1" stop-color="#0d1117" stop-opacity="1"/>
    </linearGradient>
    <linearGradient id="daily-area" x1="0" y1="0" x2="0" y2="1">
      <stop offset="0" stop-color="#39d353" stop-opacity="0.23"/>
      <stop offset="0.58" stop-color="#39d353" stop-opacity="0.07"/>
      <stop offset="1" stop-color="#39d353" stop-opacity="0"/>
    </linearGradient>
    <filter id="point-glow" x="-300%" y="-300%" width="700%" height="700%">
      <feGaussianBlur stdDeviation="3.5" result="blur"/>
      <feMerge><feMergeNode in="blur"/><feMergeNode in="SourceGraphic"/></feMerge>
    </filter>
  </defs>
  <rect x="0.5" y="0.5" width="1119" height="409" rx="18" fill="url(#chart-bg)" stroke="none"/>
  <g font-family="-apple-system,BlinkMacSystemFont,'Segoe UI',sans-serif">
    <text x="70" y="34" fill="#f0f6fc" font-size="20" font-weight="700" letter-spacing="-0.25">GitHub contribution activity</text>
    <text x="70" y="58" fill="#8b949e" font-size="12">@farhanafaiz03 · Aug 28, 2026 → Sep 26, 2026</text>
    <text x="70" y="78" fill="#8b949e" font-size="12" opacity="0.94">30 days · 76 contributions · 9 active days · peak 33</text>
    <g transform="translate(896,30)" font-size="12" fill="#8b949e">
      <line x1="0" y1="0" x2="25" y2="0" stroke="#39d353" stroke-width="2.6" stroke-linecap="round"/>
      <text x="33" y="4">Daily</text>
      <line x1="92" y1="0" x2="117" y2="0" stroke="#58a6ff" stroke-width="1.7" stroke-dasharray="5 6" stroke-linecap="round" opacity="0.72"/>
      <text x="125" y="4">7d trend</text>
    </g>
    <line x1="70" y1="116.00" x2="1078" y2="116.00" stroke="#21262d" stroke-width="1" opacity="0.52"/>
    <text x="56" y="120.00" fill="#8b949e" font-size="12" text-anchor="end" opacity="0.82">38</text>
    <line x1="70" y1="193.33" x2="1078" y2="193.33" stroke="#21262d" stroke-width="1" opacity="0.52"/>
    <text x="56" y="197.33" fill="#8b949e" font-size="12" text-anchor="end" opacity="0.82">25</text>
    <line x1="70" y1="270.67" x2="1078" y2="270.67" stroke="#21262d" stroke-width="1" opacity="0.52"/>
    <text x="56" y="274.67" fill="#8b949e" font-size="12" text-anchor="end" opacity="0.82">13</text>
    <line x1="70" y1="348.00" x2="1078" y2="348.00" stroke="#21262d" stroke-width="1" opacity="0.9"/>
    <text x="56" y="352.00" fill="#8b949e" font-size="12" text-anchor="end" opacity="0.82">0</text>
    <path d="M 70.00 280.16 C 76.26 283.49, 92.25 286.45, 104.76 298.66 C 117.27 310.88, 127.00 339.12, 139.52 348.00 C 152.03 348.00, 161.76 348.00, 174.28 348.00 C 186.79 348.00, 196.52 348.00, 209.03 348.00 C 221.55 336.90, 231.28 287.44, 243.79 286.33 C 256.31 286.33, 266.04 330.73, 278.55 341.83 C 291.06 348.00, 300.80 346.89, 313.31 348.00 C 325.82 348.00, 335.56 348.00, 348.07 348.00 C 360.58 348.00, 370.31 348.00, 382.83 348.00 C 395.34 348.00, 405.07 348.00, 417.59 348.00 C 430.10 345.78, 439.83 335.67, 452.34 335.67 C 464.86 335.67, 474.59 345.78, 487.10 348.00 C 499.62 348.00, 509.35 348.00, 521.86 348.00 C 534.38 348.00, 544.11 348.00, 556.62 348.00 C 569.13 341.34, 578.87 311.00, 591.38 311.00 C 603.89 311.00, 613.62 341.34, 626.14 348.00 C 638.65 348.00, 648.38 348.00, 660.90 348.00 C 673.41 348.00, 683.14 348.00, 695.66 348.00 C 708.17 348.00, 717.90 348.00, 730.41 348.00 C 742.93 311.37, 752.66 147.82, 765.17 144.49 C 777.69 144.49, 787.42 292.87, 799.93 329.50 C 812.44 348.00, 822.18 346.89, 834.69 348.00 C 847.20 348.00, 856.94 335.67, 869.45 335.67 C 881.96 335.67, 891.69 345.78, 904.21 348.00 C 916.72 348.00, 926.45 348.00, 938.97 348.00 C 951.48 348.00, 961.21 348.00, 973.72 348.00 C 986.24 348.00, 995.97 348.00, 1008.48 348.00 C 1021.00 348.00, 1030.73 348.00, 1043.24 348.00 C 1055.75 348.00, 1071.74 348.00, 1078.00 348.00 L 1078.00 348.00 L 70.00 348.00 Z" fill="url(#daily-area)"/>
    <path d="M 70.00 319.82 C 78.34 318.34, 88.07 314.29, 104.76 313.65 C 121.44 313.65, 122.83 316.32, 139.52 317.17 C 156.20 317.17, 157.59 317.17, 174.28 317.17 C 190.96 319.28, 192.35 325.78, 209.03 325.98 C 225.72 325.98, 227.11 319.09, 243.79 318.03 C 260.48 318.03, 261.87 318.36, 278.55 321.54 C 295.24 324.73, 296.63 327.26, 313.31 331.29 C 329.99 335.31, 331.38 336.63, 348.07 338.32 C 364.75 338.32, 366.14 338.32, 382.83 338.32 C 399.51 338.32, 400.90 338.32, 417.59 338.32 C 434.27 337.89, 435.66 336.53, 452.34 336.53 C 469.03 338.22, 470.42 343.02, 487.10 345.35 C 503.79 346.21, 505.18 346.00, 521.86 346.21 C 538.55 346.21, 539.94 346.21, 556.62 346.21 C 573.30 344.95, 574.70 342.23, 591.38 340.97 C 608.06 340.97, 609.45 340.97, 626.14 340.97 C 642.82 340.97, 644.21 340.97, 660.90 340.97 C 677.58 341.38, 678.97 342.28, 695.66 342.70 C 712.34 342.70, 713.73 342.70, 730.41 342.70 C 747.10 335.73, 748.49 321.26, 765.17 313.65 C 781.86 311.00, 783.25 311.00, 799.93 311.00 C 816.62 311.63, 818.01 315.46, 834.69 316.30 C 851.37 316.30, 852.76 314.94, 869.45 314.51 C 886.13 314.51, 887.52 314.51, 904.21 314.51 C 920.89 314.51, 922.28 314.51, 938.97 314.51 C 955.65 314.51, 957.04 314.51, 973.72 314.51 C 990.41 321.50, 991.80 336.01, 1008.48 343.62 C 1025.17 346.21, 1026.56 345.59, 1043.24 346.21 C 1059.93 346.21, 1069.66 346.21, 1078.00 346.21" fill="none" stroke="#58a6ff" stroke-width="1.75" stroke-dasharray="5 7" stroke-linejoin="round" stroke-linecap="round" opacity="0.66" vector-effect="non-scaling-stroke"/>
    <path d="M 70.00 280.16 C 76.26 283.49, 92.25 286.45, 104.76 298.66 C 117.27 310.88, 127.00 339.12, 139.52 348.00 C 152.03 348.00, 161.76 348.00, 174.28 348.00 C 186.79 348.00, 196.52 348.00, 209.03 348.00 C 221.55 336.90, 231.28 287.44, 243.79 286.33 C 256.31 286.33, 266.04 330.73, 278.55 341.83 C 291.06 348.00, 300.80 346.89, 313.31 348.00 C 325.82 348.00, 335.56 348.00, 348.07 348.00 C 360.58 348.00, 370.31 348.00, 382.83 348.00 C 395.34 348.00, 405.07 348.00, 417.59 348.00 C 430.10 345.78, 439.83 335.67, 452.34 335.67 C 464.86 335.67, 474.59 345.78, 487.10 348.00 C 499.62 348.00, 509.35 348.00, 521.86 348.00 C 534.38 348.00, 544.11 348.00, 556.62 348.00 C 569.13 341.34, 578.87 311.00, 591.38 311.00 C 603.89 311.00, 613.62 341.34, 626.14 348.00 C 638.65 348.00, 648.38 348.00, 660.90 348.00 C 673.41 348.00, 683.14 348.00, 695.66 348.00 C 708.17 348.00, 717.90 348.00, 730.41 348.00 C 742.93 311.37, 752.66 147.82, 765.17 144.49 C 777.69 144.49, 787.42 292.87, 799.93 329.50 C 812.44 348.00, 822.18 346.89, 834.69 348.00 C 847.20 348.00, 856.94 335.67, 869.45 335.67 C 881.96 335.67, 891.69 345.78, 904.21 348.00 C 916.72 348.00, 926.45 348.00, 938.97 348.00 C 951.48 348.00, 961.21 348.00, 973.72 348.00 C 986.24 348.00, 995.97 348.00, 1008.48 348.00 C 1021.00 348.00, 1030.73 348.00, 1043.24 348.00 C 1055.75 348.00, 1071.74 348.00, 1078.00 348.00" fill="none" stroke="#39d353" stroke-width="2.8" stroke-linejoin="round" stroke-linecap="round" vector-effect="non-scaling-stroke"/>
    <circle cx="1078.00" cy="348.00" r="3.2" fill="#39d353" filter="url(#point-glow)"/>
    <text x="70.00" y="389" fill="#8b949e" font-size="12" text-anchor="start" opacity="0.86">Aug 28</text>
    <text x="278.55" y="389" fill="#8b949e" font-size="12" text-anchor="middle" opacity="0.86">Sep 03</text>
    <text x="487.10" y="389" fill="#8b949e" font-size="12" text-anchor="middle" opacity="0.86">Sep 09</text>
    <text x="660.90" y="389" fill="#8b949e" font-size="12" text-anchor="middle" opacity="0.86">Sep 14</text>
    <text x="869.45" y="389" fill="#8b949e" font-size="12" text-anchor="middle" opacity="0.86">Sep 20</text>
    <text x="1078.00" y="389" fill="#8b949e" font-size="12" text-anchor="end" opacity="0.86">Sep 26</text>
  </g>
</svg>
